<?xml version="1.0" encoding="UTF-8" standalone="no"?>
<!-- Generator: Adobe Illustrator 20.1.0, SVG Export Plug-In . SVG Version: 6.00 Build 0)  -->
<svg id="Calque_1" style="enable-background:new 0 0 480 62" xmlns="http://www.w3.org/2000/svg" xml:space="preserve" viewBox="0 0 480 62" version="1.1" y="0px" x="0px" xmlns:xlink="http://www.w3.org/1999/xlink">
<style type="text/css">
	.st0{fill:#ADB31B;}
	.st1{fill:#FFFFFF;}
</style>
<path class="st0" d="m57.4 47.5c-2-1.6-4-3.3-6-4.9-0.8-0.7-0.9-0.8-0.3-1.7 1.2-2.1 2-4.3 2.5-6.6 0.8-3.6 0.7-7.1-0.5-10.6-0.4-1.2-1-2.2-1.6-3.3-0.2-0.3-0.3-0.6 0-0.9 0.9-1 1.8-2 2.8-2.9 1.4-1.5 2.9-2.9 4.2-4.4 1.5-1.7 1.1-3.7-0.8-4.8-0.5-0.4-1.1-0.7-1.7-1-1.5-0.8-3-0.7-4.4-0.1-1.2 0.5-2 1.3-2.9 2.3l-5 4.8c-0.3 0.2-0.4 0.2-0.7 0.2s-0.6-0.1-1-0.1c-12.5-2-19.5 5.3-19.5 5.3-0.3 0.3-0.6 0.3-0.9 0-0.9-0.7-1.8-1.3-2.6-2-1.4-1.1-2.4-1.3-3.9-0.4-1 0.6-1.5 1.5-2.2 2.3-0.4 0.4-0.7 0.9-1 1.3-0.8 1.3-0.7 2.6 0.4 3.7 0.9 0.9 1.8 1.8 2.8 2.7 0.4 0.3 0.4 0.6 0.2 1.1-0.3 0.6-0.6 1.1-0.8 1.7-2.2 5-2.8 10.1-1 15.4 0.3 0.8 0.1 1.2-0.4 1.8-1.4 1.5-2.9 2.9-4.1 4.5-1.1 1.4-1.1 3.1-0.1 4.6l1.2 1.5c1.1 1.3 2.9 1.3 4.1 0.2 1.3-1.2 2.5-2.5 3.8-3.7 1.5-1.4 1-1.4 2.9-0.4 3.1 1.6 6.4 2.1 9.9 1.8 3.7-0.3 7-1.6 10.2-3.4 0.9-0.5 1-0.5 1.8 0.2l1.3 1.2c1.3 1.2 2.6 2.4 3.9 3.5 1.8 1.5 4.5 1.6 6.4 0.3 1.3-0.9 2.4-2 3.5-3.1 1.6-1.8 1.6-4.4-0.5-6.1zm-17.8-6.1c-4.7 4.8-12.9 6.6-17.3 1.9-4.5-4.9-2.9-11.2 0.4-15.7s11.6-9.3 17.9-4.4c6 4.6 3.7 13.3-1 18.2z"/>
	<path class="st1" d="m88.6 13.1c0.5 0.5 0.9 1.1 1.2 1.9l7.9 27.3 8-27.3c0.2-0.8 0.6-1.4 1.1-1.9s1.2-0.7 2.1-0.7 1.6 0.2 2.2 0.7 1 1.2 1.2 2l5.6 33.9-4.4 0.8-4.6-31.8-9 30.3h-4.4l-8.9-30.3-4.5 30c-0.1 0.6-0.3 1.1-0.7 1.5-0.4 0.3-0.9 0.5-1.6 0.5-0.6 0-1.1-0.2-1.5-0.6s-0.6-0.9-0.6-1.5v-0.8l5.4-32c0.2-0.9 0.6-1.5 1.2-2s1.4-0.7 2.2-0.7 1.6 0.3 2.1 0.7z"/>
	<path class="st1" d="m137.4 13.1c0.5 0.5 0.9 1.2 1.2 2l12.8 33.7-4.4 1.3-3.2-8.4h-17l-2.6 6.9c-0.2 0.4-0.4 0.8-0.8 1.1s-0.8 0.4-1.3 0.4c-0.6 0-1.1-0.2-1.5-0.6s-0.6-0.9-0.6-1.5c0-0.4 0.1-0.8 0.3-1.2l11.8-31.6c0.3-0.7 0.6-1.4 1.1-1.9 0.5-0.6 1.1-0.8 2-0.8 1-0.1 1.7 0.2 2.2 0.6zm5.1 24.7l-7.2-20.1-7.3 20.1h14.5z"/>
	<path class="st1" d="m154.4 14.6c0-0.6 0.2-1.1 0.6-1.5s0.9-0.7 1.5-0.7 1.1 0.2 1.6 0.6c0.4 0.4 0.7 0.9 0.7 1.6v13.8l16.9-15.9 3.2 2.9-15.9 14.8 16.6 16.2c0.5 0.5 0.8 1.1 0.8 1.7s-0.2 1.1-0.6 1.4c-0.4 0.4-0.9 0.6-1.4 0.6-0.7 0-1.3-0.3-1.8-0.8l-17.8-17.3v17.6h-4.4v-35z"/>
	<path class="st1" d="m184.3 14.7c0-0.6 0.2-1.1 0.7-1.6 0.4-0.4 1-0.7 1.6-0.7s1.1 0.2 1.5 0.7c0.4 0.4 0.6 1 0.6 1.6v34.9h-4.4v-34.9z"/>
	<path class="st1" d="m196.6 14.6c0-0.6 0.2-1.1 0.7-1.6 0.4-0.4 1-0.7 1.6-0.7 0.8 0 1.4 0.3 1.8 1l19.8 28.7v-27.4c0-0.6 0.2-1.1 0.6-1.6s0.9-0.7 1.5-0.7 1.2 0.2 1.6 0.7 0.6 1 0.6 1.6v33.3c0 0.6-0.2 1.1-0.6 1.6-0.4 0.4-0.9 0.6-1.6 0.6-0.8 0-1.4-0.3-1.8-1l-19.8-28.7v29.2l-4.4-0.1v-34.9z"/>
	<path class="st1" d="m246.3 13.1c0.5 0.5 0.9 1.2 1.2 2l12.8 33.7-4.4 1.3-3.2-8.4h-17l-2.6 6.9c-0.2 0.4-0.4 0.8-0.8 1.1s-0.8 0.4-1.3 0.4c-0.6 0-1.1-0.2-1.5-0.6s-0.6-0.9-0.6-1.5c0-0.4 0.1-0.8 0.3-1.2l11.8-31.6c0.3-0.7 0.6-1.4 1.1-1.9 0.5-0.6 1.1-0.8 2-0.8 1-0.1 1.8 0.2 2.2 0.6zm5.1 24.7l-7.2-20.1-7.2 20.1h14.4z"/>
	<path class="st1" d="m299.4 45.2c-0.5 0.7-1 1.3-1.6 1.8-0.6 0.6-1.4 1.1-2.2 1.4-0.8 0.4-1.7 0.7-2.5 0.9s-1.7 0.4-2.6 0.5-1.7 0.2-2.5 0.2c-3.1 0-5.9-0.7-8.4-2s-4.5-3.2-6.1-5.6c-1.1-1.6-1.9-3.4-2.6-5.3-0.6-1.9-0.9-3.9-0.9-5.9 0-2.4 0.4-4.7 1.1-6.8 0.8-2.2 1.8-4.1 3.2-5.8s3-3.1 5-4.2c1.9-1.1 4.1-1.8 6.5-2h1.1c1 0 2 0.1 3.1 0.4 1.1 0.2 2.2 0.6 3.3 1s2.1 0.9 3.1 1.4 1.8 1.1 2.5 1.7c0.2 0.2 0.4 0.4 0.5 0.6s0.1 0.5-0.1 0.7l-2.6 5.4c-0.2 0.3-0.6 0.5-1 0.6s-0.9 0-1.3-0.2c-1-0.8-2-1.5-3-2s-2.2-0.8-3.3-0.8c-0.3 0-0.7 0.1-1.2 0.2-1.1 0.2-2 0.6-2.8 1.2s-1.5 1.3-2.1 2.2-1 1.8-1.3 2.9-0.4 2.2-0.4 3.4c0 1.3 0.1 2.5 0.4 3.7s0.7 2.2 1.3 3.1 1.3 1.6 2.2 2.2c0.9 0.5 1.9 0.8 3.1 0.8 0.9 0 1.7-0.1 2.5-0.4s1.5-0.6 2.1-0.9c0.5-0.3 1.1-0.5 1.6-0.7s1.1-0.3 1.7-0.3c1.3 0 2.4 0.4 3.3 1.2s1.4 1.9 1.4 3.1c0.2 0.9 0 1.6-0.5 2.3z"/>
	<path class="st1" d="m335.2 38.4c-0.9 2.3-2.1 4.3-3.7 6s-3.4 3.1-5.6 4.1-4.6 1.5-7.2 1.5-5-0.5-7.2-1.5-4.1-2.4-5.6-4.1c-1.6-1.7-2.8-3.7-3.7-6s-1.3-4.7-1.3-7.2c0-2.6 0.4-5 1.3-7.3s2.1-4.3 3.7-6 3.4-3.1 5.6-4.1 4.6-1.5 7.2-1.5 5 0.5 7.2 1.5 4.1 2.4 5.6 4.1c1.6 1.7 2.8 3.7 3.7 6s1.3 4.7 1.3 7.2c0 2.6-0.4 5-1.3 7.3zm-9.8-10.7c-0.3-1.2-0.7-2.4-1.3-3.3-0.6-1-1.3-1.8-2.2-2.3s-2-0.9-3.3-0.9c-1.2 0-2.3 0.3-3.2 0.9s-1.6 1.4-2.2 2.3c-0.6 1-1 2-1.3 3.2s-0.4 2.4-0.4 3.6 0.1 2.4 0.4 3.6 0.7 2.3 1.3 3.2c0.6 1 1.3 1.8 2.2 2.3 0.9 0.6 1.9 0.9 3.2 0.9 1.2 0 2.2-0.3 3.1-0.8 0.9-0.6 1.7-1.3 2.3-2.2s1.1-2 1.4-3.2 0.5-2.4 0.5-3.6-0.2-2.5-0.5-3.7z"/>
	<path class="st1" d="m362.7 50.8c-0.3 0.1-0.7 0.2-1.1 0.2s-0.7-0.2-0.9-0.4l-9.1-12.1v6.7c0 0.7-0.1 1.3-0.4 1.9s-0.6 1.1-1.1 1.5-1 0.8-1.6 1c-0.6 0.3-1.3 0.4-2 0.4s-1.4-0.1-2-0.4-1.2-0.6-1.6-1.1c-0.5-0.4-0.9-1-1.1-1.6-0.3-0.6-0.4-1.2-0.4-1.9v-31.2c0-0.3 0.2-0.6 0.5-0.8s0.7-0.3 1.2-0.2h0.8 1.2 1.5 1.7c0.9 0 1.8-0.1 2.8-0.1h2.4 1.4c0.4 0 0.6 0 0.8 0.1 1.7 0.3 3.3 0.7 4.8 1.3s2.8 1.4 3.9 2.3c1.1 1 2 2.2 2.6 3.6s1 3 1 4.9c0 1.3-0.2 2.5-0.6 3.5s-0.9 2-1.6 2.8-1.5 1.5-2.4 2.1-1.9 1-3 1.4l8.5 10.6c0.3 0.3 0.4 0.6 0.4 0.8s-0.3 0.5-0.7 0.7l-5.9 4zm-5.8-28.3c-0.5-0.6-1.1-0.9-1.7-0.9h-3.6v6.1h3.8c0.6 0 1.1-0.3 1.6-0.9 0.4-0.6 0.7-1.3 0.7-2.1s-0.3-1.5-0.8-2.2z"/>
	<path class="st1" d="m400.3 30.4c-0.6 1.5-1.5 2.8-2.6 3.9s-2.4 1.9-3.9 2.6c-1.5 0.6-3.1 1-4.8 1.2-0.4 0.1-1.1 0.1-2.1 0.1h-2.7v0.2 2.4c0 0.9-0.1 1.8-0.1 2.8-0.1 0.9-0.2 1.8-0.3 2.5-0.1 0.8-0.3 1.3-0.6 1.7-0.4 0.6-0.9 1.1-1.6 1.6-0.6 0.5-1.5 0.7-2.5 0.7-0.7 0-1.4-0.1-2-0.4s-1.2-0.6-1.6-1.1c-0.5-0.5-0.8-1-1.1-1.6s-0.4-1.2-0.4-1.9v-31.2c0-0.3 0.1-0.5 0.4-0.7s0.6-0.3 1-0.3h7.5c1.5 0 3 0.1 4.5 0.2 1.5 0.2 2.9 0.4 4.3 0.7v-0.1c2.3 0.5 4.4 1.7 6.1 3.3 1.7 1.7 2.7 3.8 3.1 6.3 0.1 0.6 0.2 1.3 0.2 2.1 0.1 1.9-0.2 3.5-0.8 5zm-10.1-7.6c-0.6-0.7-1.4-1.1-2.2-1.1h-3.6v7.6h3.6c0.9 0 1.6-0.4 2.2-1.1s0.9-1.6 0.9-2.7-0.3-2-0.9-2.7z"/>
	<path class="st1" d="m436.2 41.1c-0.8 1.9-1.9 3.5-3.4 4.8-1.4 1.3-3.2 2.3-5.1 3-2 0.7-4.1 1-6.4 1s-4.5-0.4-6.4-1c-2-0.7-3.7-1.7-5.1-3s-2.6-2.9-3.4-4.8c-0.8-1.9-1.2-4-1.2-6.5v-20.8c0-0.3 0.1-0.5 0.4-0.7s0.7-0.3 1.1-0.3h7.4c0.4 0 0.8 0.1 1 0.3 0.3 0.2 0.4 0.5 0.4 0.7v21c0 2 0.5 3.6 1.6 4.8s2.5 1.8 4.2 1.8 3.1-0.6 4.2-1.8c1.1-1.2 1.6-2.8 1.6-4.8v-17.5c0-0.7 0.1-1.3 0.4-1.9s0.6-1.1 1.1-1.6 1-0.8 1.6-1.1 1.3-0.4 2-0.4 1.4 0.1 2 0.4c0.6 0.3 1.2 0.6 1.7 1.1s0.9 1 1.1 1.6c0.3 0.6 0.4 1.2 0.4 1.9v17.3c0.1 2.5-0.4 4.6-1.2 6.5z"/>
	<path class="st1" d="m460.3 27.4c1.5 0.6 2.8 1.3 4.1 2.1 1.2 0.9 2.2 1.9 3 3.2s1.2 2.9 1.2 4.7c0 1.3-0.2 2.5-0.7 3.7-0.4 1.2-1 2.3-1.8 3.4-1.4 1.9-3 3.3-5 4.1-2 0.9-4.1 1.3-6.4 1.3-0.9 0-1.9-0.1-3-0.3-1.2-0.2-2.3-0.5-3.6-0.8-1.2-0.3-2.4-0.7-3.5-1.1s-2.1-0.8-2.8-1.2c-0.3-0.1-0.5-0.2-0.7-0.5s-0.2-0.5-0.2-0.7c0.1-0.9 0.3-1.6 0.5-2.2l0.6-1.8c0.1-0.3 0.1-0.5 0.2-0.7s0.1-0.4 0.2-0.5l-0.1 0.1c0.1-0.1 0.1-0.3 0.2-0.5s0.1-0.4 0.2-0.6c0-0.1 0-0.2 0.1-0.3v0.2-0.2c0-0.4 0.2-0.7 0.6-0.9s0.9-0.2 1.5-0.1c0.2 0.1 0.5 0.2 0.9 0.3 0.4 0.2 0.8 0.3 1.3 0.5s0.9 0.4 1.4 0.5c0.5 0.2 0.8 0.3 1.1 0.4 1 0.4 1.9 0.7 2.8 1s1.7 0.4 2.5 0.4c0.4 0 0.8-0.1 1.2-0.3s0.7-0.4 1-0.7 0.6-0.6 0.7-1c0.2-0.4 0.3-0.9 0.3-1.3 0-0.3-0.1-0.6-0.3-0.8s-0.5-0.5-0.8-0.7c-0.3-0.2-0.6-0.4-0.9-0.5s-0.6-0.3-0.8-0.4v0.1c-0.8-0.4-1.6-0.7-2.4-1-1.3-0.4-2.6-0.9-3.8-1.4-1.3-0.5-2.4-1.2-3.4-1.9-1-0.8-1.8-1.8-2.5-2.9-0.6-1.2-0.9-2.6-0.9-4.3 0-1.8 0.4-3.5 1.2-4.9s1.8-2.7 3.1-3.6c1.3-1 2.7-1.7 4.3-2.2s3.2-0.8 4.9-0.8c0.8 0 1.9 0.1 3.1 0.3s2.4 0.6 3.5 1.1 2.1 1.2 2.9 2 1.2 1.8 1.2 3-0.4 2.2-1.3 3-1.9 1.3-3.2 1.3c-0.7 0-1.4-0.1-1.9-0.3-0.6-0.2-1.2-0.4-1.7-0.7-0.6-0.2-1.2-0.5-1.8-0.7s-1.2-0.3-1.9-0.3c-0.4 0-0.9 0.2-1.4 0.5s-0.7 0.8-0.7 1.5c0 0.4 0.1 0.7 0.3 1s0.4 0.5 0.7 0.7 0.6 0.4 1 0.5 0.7 0.3 1 0.4c0.2 0.1 0.4 0.2 0.6 0.2l-0.2-0.1h0.2v0.1c1.2 0.6 2.6 1.1 4.1 1.6z"/>
</svg>
